<?xml version="1.0" encoding="UTF-8"?>
<svg id="Layer_1" xmlns="http://www.w3.org/2000/svg" version="1.1" viewBox="0 0 500 500">
  <!-- Generator: Adobe Illustrator 30.2.1, SVG Export Plug-In . SVG Version: 2.1.1 Build 1)  -->
  <defs>
    <style>
      .st0 {
        fill: none;
      }

      .st1 {
        fill-rule: evenodd;
      }

      .st1, .st2 {
        fill: #e81d32;
      }

      .st3 {
        fill: #fff;
      }
    </style>
  </defs>
  <g id="LOGO_copy">
    <circle cx="248.74" cy="181.54" r="137.36"/>
    <g>
      <path class="st1" d="M292.58,91.04s18.59,26.73-3.1,39.9l15.49,3.49s15.49-19.76-12.4-43.38h.01Z"/>
      <path class="st3" d="M295.87,86.68c28.08,22.08,21.1,43.28,14.37,51.87l-2.61,3.32-35.79-8.05,14.17-8.6c3.89-2.36,5.9-5.38,6.96-9.02,2.12-7.24-3.98-22.41-6.2-25.64,0,0-4.26-8.13-5.81-9.68,0,0,6.39.39,14.91,5.81h0Z"/>
    </g>
    <path class="st1" d="M292.58,91.04s18.59,26.73-3.1,39.9l15.49,3.49s15.49-19.76-12.4-43.38h.01Z"/>
    <path class="st1" d="M292.58,91.04s18.59,26.73-3.1,39.9l15.49,3.49s15.49-19.76-12.4-43.38h.01Z"/>
    <path class="st3" d="M304.41,195.7c-.86.14-10.72,1.44-20.43,7.78l3.62,4.07c.12.14,12.22,13.71,26.83,27.33,25.51,23.77,34.67,24.57,39.95,27.4l4.04,2.01-4.65,6.68c-1.08,2.21-35.44,45.9-107.52,47.29l-.97.06-.95-.21c-3.51-.79-64.58,3.7-109.49-55.32l-1.86-2.57.82-3.06c.91-3.4,16.98-63.6,54.29-97.22-5.66-2.36-11.86-6.65-17.49-14.28l-5.54-7.51,27.85-8.86c.18-.07.43-.16.72-.26-.36-4.83-.6-21.41,10.93-35.22,9.86-11.8,24.69-19.32,49.09-17,0,0,9.3,1.16,12.4,2.13l-9.49,4.65c-.24.08-30.99,13.75-29.71,33.51.18,1.15,1.05,3.4,5.05,4.23l10.4-.53c2.54-.25,18.77-1.73,27.96.11l.9.18.82.42c4.59,2.33,17.55,8.72,23,10.59,3,.78,10.9,2.59,15.11,2.63,1.71-.06,8.54-.19,13.41,1.55l.41.16c1.66.72,15.98,7.85,7.23,36.56,0,0-4.47,19.07-26.71,22.72l-.02-.02ZM188.34,144.77c7.94,5.76,15.17,4.4,15.56,4.32l13.39-3.11-4.77-3c-6.94-4.36-14.45-1.37-14.76-1.24l-.57.21-8.85,2.81h0ZM318.8,148.79l.19.07c-.06-.02-.13-.04-.19-.07ZM318.59,148.69h0ZM318.29,148.62l.08.03h-.01l-.07-.02h0Z"/>
    <path class="st1" d="M324.73,171.02c7.26-23.82-3.49-28.47-3.49-28.47-4.07-1.45-11.04-1.16-11.04-1.16-6.1,0-17.14-2.91-17.14-2.91-6.97-2.32-24.11-11.04-24.11-11.04-8.72-1.74-26.15,0-26.15,0l-11.33.58c-11.04-1.74-11.33-10.75-11.33-10.75.87-26.15,30.79-36.02,30.79-36.02-56.65,2.61-50.55,48.23-50.55,48.23,10.46-.87,15.69,7.84,15.69,7.84-10.17-6.39-20.92-1.74-20.92-1.74l-19.17,6.1c13.07,17.72,29.34,13.94,29.34,13.94-44.45,24.69-66.82,110.69-66.82,110.69,47.94,55.2,106.62,53.16,106.62,53.16,83.38-5.52,108.65-50.55,108.65-50.55-22.37-2.03-71.18-56.94-71.18-56.94-29.63,17.72-20.34,64.2-20.34,64.2-22.95-80.76,41.54-87.16,41.54-87.16,0,0,15.54-1.74,20.92-18.01h.02Z"/>
    <circle class="st0" cx="248.74" cy="181.54" r="137.36"/>
    <path class="st3" d="M255.29,139.48l-1.95,4.8c-.81,2.01-2.4,3.6-4.41,4.41l-4.8,1.95c-.89.36-.89,1.62,0,1.98l4.8,1.95c2.01.81,3.6,2.4,4.41,4.41l1.95,4.8c.36.89,1.62.89,1.98,0l1.95-4.8c.81-2.01,2.4-3.6,4.41-4.41l4.8-1.95c.89-.36.89-1.62,0-1.98l-4.8-1.95c-2.01-.81-3.6-2.4-4.41-4.41l-1.95-4.8c-.36-.89-1.62-.89-1.98,0ZM243.47,133.84l-.57,1.64c-.45,1.29-1.47,2.31-2.76,2.76l-1.64.57c-.61.21-.61,1.07,0,1.28l1.64.57c1.29.45,2.31,1.47,2.76,2.76l.57,1.64c.21.61,1.07.61,1.28,0l.57-1.64c.45-1.29,1.47-2.31,2.76-2.76l1.64-.57c.61-.21.61-1.07,0-1.28l-1.64-.57c-1.29-.45-2.31-1.47-2.76-2.76l-.57-1.64c-.21-.61-1.07-.61-1.28,0Z"/>
    <path class="st2" d="M249.78,324.44c-78.8,0-142.9-64.11-142.9-142.9S170.98,38.64,249.78,38.64s142.9,64.1,142.9,142.9-64.11,142.9-142.9,142.9ZM249.78,49.73c-72.68,0-131.81,59.13-131.81,131.81s59.13,131.81,131.81,131.81,131.81-59.13,131.81-131.81S322.46,49.73,249.78,49.73Z"/>
    <g id="TEXT1">
      <g>
        <g>
          <path class="st3" d="M28.56,398.38v39.26h-13.05v-88.37h12.93v38.31h-1.72c1.94-5.93,4.74-10.26,8.42-12.99s8.13-4.09,13.35-4.09c4.51,0,8.45.95,11.83,2.85s6.01,4.69,7.89,8.39,2.82,8.29,2.82,13.79v42.11h-13.05v-40.51c0-4.78-1.25-8.52-3.74-11.21s-5.91-4.03-10.26-4.03c-2.93,0-5.56.64-7.89,1.93-2.33,1.29-4.17,3.15-5.51,5.6-1.35,2.45-2.02,5.44-2.02,8.96h0Z"/>
          <path class="st3" d="M118.88,439.01c-6.21,0-11.63-1.42-16.28-4.27-4.65-2.85-8.25-6.84-10.82-11.98s-3.86-11.11-3.86-17.91,1.28-12.9,3.86-18.06c2.57-5.16,6.18-9.16,10.82-12.01,4.65-2.85,10.07-4.27,16.28-4.27s11.69,1.42,16.34,4.27c4.64,2.85,8.25,6.85,10.82,12.01s3.85,11.18,3.85,18.06-1.29,12.77-3.85,17.91c-2.57,5.14-6.18,9.13-10.82,11.98-4.65,2.85-10.09,4.27-16.34,4.27ZM118.88,427.98c4.03,0,7.36-1.06,9.99-3.17,2.63-2.11,4.59-4.92,5.87-8.42s1.93-7.34,1.93-11.54-.64-8.12-1.93-11.66-3.24-6.36-5.87-8.48c-2.63-2.11-5.96-3.17-9.99-3.17s-7.3,1.06-9.91,3.17c-2.61,2.12-4.56,4.93-5.84,8.45-1.28,3.52-1.93,7.41-1.93,11.68s.64,8.04,1.93,11.54c1.28,3.5,3.23,6.31,5.84,8.42s5.91,3.17,9.91,3.17h0Z"/>
          <path class="st3" d="M179.85,398.38v39.26h-13.05v-66.31h12.45l.12,16.25h-1.36c1.94-5.93,4.74-10.26,8.42-12.99,3.68-2.73,8.13-4.09,13.35-4.09,4.51,0,8.44.95,11.8,2.85s5.99,4.69,7.89,8.39,2.85,8.29,2.85,13.79v42.11h-13.05v-40.51c0-4.78-1.25-8.52-3.74-11.21s-5.91-4.03-10.26-4.03c-2.93,0-5.56.64-7.89,1.93-2.33,1.29-4.17,3.15-5.51,5.6-1.35,2.45-2.02,5.44-2.02,8.96h0Z"/>
          <path class="st3" d="M270,463.86c-5.1,0-9.53-.65-13.28-1.96-3.76-1.3-6.85-3.05-9.28-5.22s-4.28-4.59-5.55-7.24l10.91-5.16c.79,1.27,1.85,2.6,3.17,4,1.32,1.4,3.11,2.6,5.37,3.59,2.25.99,5.14,1.48,8.66,1.48,5.06,0,9.16-1.2,12.31-3.59s4.72-6.14,4.72-11.24v-12.93h-1.13c-.79,1.46-1.89,3.05-3.29,4.74s-3.36,3.17-5.87,4.42-5.78,1.87-9.82,1.87c-5.22,0-9.91-1.22-14.09-3.68-4.17-2.45-7.48-6.09-9.93-10.91s-3.68-10.76-3.68-17.79,1.22-13.08,3.65-18.12,5.75-8.91,9.96-11.6,8.96-4.03,14.26-4.03c4.07,0,7.38.67,9.93,2.02,2.55,1.35,4.55,2.94,5.99,4.77,1.44,1.84,2.54,3.45,3.29,4.83h.95v-10.79h12.75v67.26c0,5.81-1.32,10.59-3.95,14.32-2.63,3.74-6.21,6.49-10.73,8.27-4.53,1.78-9.64,2.67-15.33,2.67v.02ZM269.94,425.78c3.72,0,6.85-.86,9.4-2.58s4.48-4.21,5.78-7.47,1.96-7.15,1.96-11.66-.65-8.38-1.96-11.74c-1.3-3.36-3.23-5.99-5.78-7.89-2.55-1.9-5.69-2.85-9.4-2.85s-7.04,1-9.61,3c-2.57,2-4.51,4.69-5.81,8.07s-1.96,7.19-1.96,11.42.65,8.1,1.96,11.36c1.3,3.26,3.25,5.8,5.84,7.62s5.78,2.73,9.58,2.73h0Z"/>
          <path class="st3" d="M333.05,398.38v39.26h-13.05v-66.31h12.45l.12,16.25h-1.36c1.94-5.93,4.74-10.26,8.42-12.99s8.13-4.09,13.35-4.09c4.51,0,8.44.95,11.8,2.85s5.99,4.69,7.89,8.39c1.9,3.7,2.85,8.29,2.85,13.79v42.11h-13.05v-40.51c0-4.78-1.25-8.52-3.74-11.21s-5.91-4.03-10.26-4.03c-2.93,0-5.56.64-7.89,1.93-2.33,1.29-4.17,3.15-5.51,5.6-1.35,2.45-2.02,5.44-2.02,8.96h0Z"/>
          <path class="st3" d="M402.08,361.2c-2.25,0-4.18-.76-5.78-2.28s-2.4-3.33-2.4-5.43.8-4.01,2.4-5.51,3.53-2.25,5.78-2.25,4.19.75,5.81,2.25,2.43,3.34,2.43,5.51-.81,3.95-2.43,5.46c-1.62,1.5-3.56,2.25-5.81,2.25ZM395.5,437.65v-66.31h13.05v66.31h-13.05Z"/>
          <path class="st3" d="M451.13,438.48c-4.51,0-8.46-.95-11.86-2.85s-6.04-4.71-7.92-8.42c-1.88-3.72-2.82-8.3-2.82-13.76v-42.11h13.05v40.51c0,4.79,1.25,8.52,3.77,11.21,2.51,2.69,5.92,4.03,10.23,4.03,2.97,0,5.61-.64,7.92-1.93,2.31-1.28,4.14-3.16,5.49-5.64,1.34-2.47,2.02-5.45,2.02-8.93v-39.26h13.05v66.31h-12.45l-.06-16.25h1.25c-1.94,6.01-4.77,10.36-8.48,13.05-3.72,2.69-8.11,4.03-13.17,4.03h-.02Z"/>
        </g>
        <g>
          <path class="st2" d="M28.56,398.38v39.26h-13.05v-88.37h12.93v38.31h-1.72c1.94-5.93,4.74-10.26,8.42-12.99s8.13-4.09,13.35-4.09c4.51,0,8.45.95,11.83,2.85s6.01,4.69,7.89,8.39,2.82,8.29,2.82,13.79v42.11h-13.05v-40.51c0-4.78-1.25-8.52-3.74-11.21s-5.91-4.03-10.26-4.03c-2.93,0-5.56.64-7.89,1.93-2.33,1.29-4.17,3.15-5.51,5.6-1.35,2.45-2.02,5.44-2.02,8.96h0Z"/>
          <path class="st2" d="M118.88,439.01c-6.21,0-11.63-1.42-16.28-4.27-4.65-2.85-8.25-6.84-10.82-11.98s-3.86-11.11-3.86-17.91,1.28-12.9,3.86-18.06c2.57-5.16,6.18-9.16,10.82-12.01,4.65-2.85,10.07-4.27,16.28-4.27s11.69,1.42,16.34,4.27c4.64,2.85,8.25,6.85,10.82,12.01s3.85,11.18,3.85,18.06-1.29,12.77-3.85,17.91c-2.57,5.14-6.18,9.13-10.82,11.98-4.65,2.85-10.09,4.27-16.34,4.27ZM118.88,427.98c4.03,0,7.36-1.06,9.99-3.17,2.63-2.11,4.59-4.92,5.87-8.42s1.93-7.34,1.93-11.54-.64-8.12-1.93-11.66-3.24-6.36-5.87-8.48c-2.63-2.11-5.96-3.17-9.99-3.17s-7.3,1.06-9.91,3.17c-2.61,2.12-4.56,4.93-5.84,8.45-1.28,3.52-1.93,7.41-1.93,11.68s.64,8.04,1.93,11.54c1.28,3.5,3.23,6.31,5.84,8.42s5.91,3.17,9.91,3.17h0Z"/>
          <path class="st2" d="M179.85,398.38v39.26h-13.05v-66.31h12.45l.12,16.25h-1.36c1.94-5.93,4.74-10.26,8.42-12.99,3.68-2.73,8.13-4.09,13.35-4.09,4.51,0,8.44.95,11.8,2.85s5.99,4.69,7.89,8.39,2.85,8.29,2.85,13.79v42.11h-13.05v-40.51c0-4.78-1.25-8.52-3.74-11.21s-5.91-4.03-10.26-4.03c-2.93,0-5.56.64-7.89,1.93-2.33,1.29-4.17,3.15-5.51,5.6-1.35,2.45-2.02,5.44-2.02,8.96h0Z"/>
          <path class="st2" d="M270,463.86c-5.1,0-9.53-.65-13.28-1.96-3.76-1.3-6.85-3.05-9.28-5.22s-4.28-4.59-5.55-7.24l10.91-5.16c.79,1.27,1.85,2.6,3.17,4,1.32,1.4,3.11,2.6,5.37,3.59,2.25.99,5.14,1.48,8.66,1.48,5.06,0,9.16-1.2,12.31-3.59s4.72-6.14,4.72-11.24v-12.93h-1.13c-.79,1.46-1.89,3.05-3.29,4.74s-3.36,3.17-5.87,4.42-5.78,1.87-9.82,1.87c-5.22,0-9.91-1.22-14.09-3.68-4.17-2.45-7.48-6.09-9.93-10.91s-3.68-10.76-3.68-17.79,1.22-13.08,3.65-18.12,5.75-8.91,9.96-11.6,8.96-4.03,14.26-4.03c4.07,0,7.38.67,9.93,2.02,2.55,1.35,4.55,2.94,5.99,4.77,1.44,1.84,2.54,3.45,3.29,4.83h.95v-10.79h12.75v67.26c0,5.81-1.32,10.59-3.95,14.32-2.63,3.74-6.21,6.49-10.73,8.27-4.53,1.78-9.64,2.67-15.33,2.67v.02ZM269.94,425.78c3.72,0,6.85-.86,9.4-2.58s4.48-4.21,5.78-7.47,1.96-7.15,1.96-11.66-.65-8.38-1.96-11.74c-1.3-3.36-3.23-5.99-5.78-7.89-2.55-1.9-5.69-2.85-9.4-2.85s-7.04,1-9.61,3c-2.57,2-4.51,4.69-5.81,8.07s-1.96,7.19-1.96,11.42.65,8.1,1.96,11.36c1.3,3.26,3.25,5.8,5.84,7.62s5.78,2.73,9.58,2.73h0Z"/>
          <path class="st2" d="M333.05,398.38v39.26h-13.05v-66.31h12.45l.12,16.25h-1.36c1.94-5.93,4.74-10.26,8.42-12.99s8.13-4.09,13.35-4.09c4.51,0,8.44.95,11.8,2.85s5.99,4.69,7.89,8.39c1.9,3.7,2.85,8.29,2.85,13.79v42.11h-13.05v-40.51c0-4.78-1.25-8.52-3.74-11.21s-5.91-4.03-10.26-4.03c-2.93,0-5.56.64-7.89,1.93-2.33,1.29-4.17,3.15-5.51,5.6-1.35,2.45-2.02,5.44-2.02,8.96h0Z"/>
          <path class="st2" d="M402.08,361.2c-2.25,0-4.18-.76-5.78-2.28s-2.4-3.33-2.4-5.43.8-4.01,2.4-5.51,3.53-2.25,5.78-2.25,4.19.75,5.81,2.25,2.43,3.34,2.43,5.51-.81,3.95-2.43,5.46c-1.62,1.5-3.56,2.25-5.81,2.25ZM395.5,437.65v-66.31h13.05v66.31h-13.05Z"/>
          <path class="st2" d="M451.13,438.48c-4.51,0-8.46-.95-11.86-2.85s-6.04-4.71-7.92-8.42c-1.88-3.72-2.82-8.3-2.82-13.76v-42.11h13.05v40.51c0,4.79,1.25,8.52,3.77,11.21,2.51,2.69,5.92,4.03,10.23,4.03,2.97,0,5.61-.64,7.92-1.93,2.31-1.28,4.14-3.16,5.49-5.64,1.34-2.47,2.02-5.45,2.02-8.93v-39.26h13.05v66.31h-12.45l-.06-16.25h1.25c-1.94,6.01-4.77,10.36-8.48,13.05-3.72,2.69-8.11,4.03-13.17,4.03h-.02Z"/>
        </g>
      </g>
    </g>
  </g>
</svg>